<svg width="56.00000000000001" height="56.00000000000001" xmlns="http://www.w3.org/2000/svg">

 <g>
  <title>Layer 1</title>
  <g id="svg_1">
   <path id="svg_2" fill="#E9E9E0" d="m36.985,0l-29.022,0c-0.808,0 -1.463,0.655 -1.463,1.926l0,53.074c0,0.345 0.655,1 1.463,1l40.074,0c0.808,0 1.463,-0.655 1.463,-1l0,-42.022c0,-0.696 -0.093,-0.92 -0.257,-1.085l-11.636,-11.636c-0.165,-0.164 -0.389,-0.257 -0.622,-0.257z"/>
   <polygon id="svg_3" fill="#D9D7CA" points="37.5,0.151 37.5,12 49.349,12  "/>
   <path id="svg_4" fill="#5153ff" d="m48.037,56l-40.074,0c-0.808,0 -1.463,-0.655 -1.463,-1.463l0,-15.537l43,0l0,15.537c0,0.808 -0.655,1.463 -1.463,1.463z"/>
   <g id="svg_5">
    <path id="svg_6" fill="#5153ff" d="m23.207,16.293c-0.391,-0.391 -1.023,-0.391 -1.414,0l-6,6c-0.391,0.391 -0.391,1.023 0,1.414l6,6c0.195,0.195 0.451,0.293 0.707,0.293s0.512,-0.098 0.707,-0.293c0.391,-0.391 0.391,-1.023 0,-1.414l-5.293,-5.293l5.293,-5.293c0.391,-0.391 0.391,-1.023 0,-1.414z"/>
    <path id="svg_7" fill="#5153ff" d="m41.207,22.293l-6,-6c-0.391,-0.391 -1.023,-0.391 -1.414,0s-0.391,1.023 0,1.414l5.293,5.293l-5.293,5.293c-0.391,0.391 -0.391,1.023 0,1.414c0.195,0.195 0.451,0.293 0.707,0.293s0.512,-0.098 0.707,-0.293l6,-6c0.391,-0.391 0.391,-1.023 0,-1.414z"/>
   </g>
  </g>
  <g id="svg_8"/>
  <g id="svg_9"/>
  <g id="svg_10"/>
  <g id="svg_11"/>
  <g id="svg_12"/>
  <g id="svg_13"/>
  <g id="svg_14"/>
  <g id="svg_15"/>
  <g id="svg_16"/>
  <g id="svg_17"/>
  <g id="svg_18"/>
  <g id="svg_19"/>
  <g id="svg_20"/>
  <g id="svg_21"/>
  <g id="svg_22"/>
  <text transform="matrix(0.566482, 0, 0, 0.528753, -0.113061, 29.4352)" xml:space="preserve" text-anchor="start" font-family="sans-serif" font-size="24" id="svg_23" y="43.57698" x="24.95551" opacity="undefined" stroke-width="0" stroke="#000" fill="#ffffff">PHP</text>
  <text font-style="normal" font-weight="normal" transform="matrix(0.701301, 0, 0, 0.701301, 8.87065, 11.6378)" xml:space="preserve" text-anchor="start" font-family="sans-serif" font-size="24" id="svg_25" y="24.88699" x="21.09797" opacity="undefined" stroke-opacity="null" stroke-dasharray="null" stroke-width="0" stroke="#000" fill="#5153ff">?</text>
 </g>
</svg>