<svg id="bold" enable-background="new 0 0 24 24" height="512" viewBox="0 0 24 24" width="512" xmlns="http://www.w3.org/2000/svg"><path d="m19.25 0h-14.5c-1.517 0-2.75 1.233-2.75 2.75v18.5c0 1.517 1.233 2.75 2.75 2.75h14.5c1.517 0 2.75-1.233 2.75-2.75v-18.5c0-1.517-1.233-2.75-2.75-2.75zm-14.25 8.75c0-.414.336-.75.75-.75h5.5c.414 0 .75.336.75.75v1c0 .414-.336.75-.75.75s-.75-.336-.75-.75v-.25h-1.25v4c.414 0 .75.336.75.75s-.336.75-.75.75h-1.5c-.414 0-.75-.336-.75-.75s.336-.75.75-.75v-4h-1.25v.25c0 .414-.336.75-.75.75s-.75-.336-.75-.75zm13.25 12.25h-12.5c-.414 0-.75-.336-.75-.75s.336-.75.75-.75h12.5c.414 0 .75.336.75.75s-.336.75-.75.75zm0-3h-12.5c-.414 0-.75-.336-.75-.75s.336-.75.75-.75h12.5c.414 0 .75.336.75.75s-.336.75-.75.75zm0-3h-3.5c-.414 0-.75-.336-.75-.75s.336-.75.75-.75h3.5c.414 0 .75.336.75.75s-.336.75-.75.75zm0-2.75h-3.5c-.414 0-.75-.336-.75-.75s.336-.75.75-.75h3.5c.414 0 .75.336.75.75s-.336.75-.75.75zm0-2.75h-3.5c-.414 0-.75-.336-.75-.75s.336-.75.75-.75h3.5c.414 0 .75.336.75.75s-.336.75-.75.75z"/></svg>